<svg xmlns="http://www.w3.org/2000/svg" width="87" height="35" fill="none"><g clip-path="url(#a)"><path d="M50.353 29.293c1.667 0 3.034-.78 3.993-2.23l.18 1.93H57.8V8.307h-3.537v7.471c-.888-1.343-2.207-2.05-3.754-2.05-3.417 0-5.804 2.89-5.804 7.89 0 4.929 2.315 7.675 5.648 7.675zm21.765-1.308v-2.89c-1.103.744-2.95 1.404-4.676 1.404-2.59 0-3.574-1.224-3.718-3.718h8.538v-1.883c0-5.204-2.29-7.17-5.828-7.17-4.317 0-6.367 3.297-6.367 7.83 0 5.204 2.554 7.735 7.087 7.735 2.254 0 3.921-.6 4.964-1.308zm-38.133-9.737c.66-.803 1.69-1.487 2.974-1.487 1.247 0 1.81.54 1.81 1.667v10.565h3.538V18.068c0-2.974-1.187-4.28-4.077-4.28-2.11 0-3.358.779-4.077 1.486h-.18l-.084-1.247h-3.454v14.966h3.538V18.248h.012zm-6.428.54c0-3.634-1.847-5-5.6-5-2.326 0-4.197.983-5.265 1.75v3.07c1.128-.923 2.855-1.99 4.857-1.99 1.691 0 2.47.599 2.47 2.206v.947h-.563c-5.42 0-7.83 1.751-7.83 4.88 0 2.89 1.846 4.558 4.58 4.558 2.087 0 2.974-.684 3.658-1.403h.143c.024.383.144.887.264 1.187h3.454a37.53 37.53 0 0 1-.18-3.658v-6.547h.012zm55.45 10.205H87l-4.88-7.71 4.22-7.256h-3.537l-2.554 4.521-2.854-4.52h-4.006l4.521 7.17-4.7 7.795h3.597l3.01-5.06 3.19 5.06zm-31.61-12.471c1.906 0 2.854 1.522 2.854 4.964 0 3.478-1.008 5-3.01 5-1.931 0-2.89-1.486-2.89-4.88.012-3.538 1.019-5.085 3.046-5.085zm14.977 0c1.751 0 2.29 1.462 2.29 3.333v.3h-4.94c.084-2.386.947-3.634 2.65-3.634zM24.02 25.419c-.444.66-1.284 1.188-2.53 1.188-1.488 0-2.231-.864-2.231-2.171 0-1.727 1.223-2.326 4.257-2.326h.504v3.31z" fill="#000"/><path d="M10.385 25.48v3.513H6.787v-5.924L0 8.307h3.753l5.289 11.548c1.02 2.207 1.343 2.974 1.343 5.624zM17.148 8.307l-4.413 10.001H9.078l4.413-10h3.657z" fill="#FC3F1D"/></g><defs><clipPath id="a"><path fill="#fff" d="M0 0h87v35H0z"/></clipPath></defs></svg>
